<svg version="1" xmlns="http://www.w3.org/2000/svg" width="533.333" height="533.333" viewBox="0 0 400.000000 400.000000"><path d="M46.5 201.1c0 131.3.3 197.9 1 198h73.3l2.2-.1V282.5l4.3-4.7c3.6-4 16.2-17.6 23.6-25.7 1.3-1.4 4.8-5.4 7.8-8.9 3.1-3.4 5.9-6.2 6.2-6.2.3 0 1.4 1.5 2.5 3.3 1 1.7 2.6 4.5 3.6 6.2.9 1.6 9.7 16.3 19.5 32.5s18.6 30.8 19.5 32.5c1 1.6 5.7 9.5 10.5 17.5s9.5 15.7 10.4 17.2c1.5 2.5 17 28.3 19.2 31.8.5.8 3.5 6 6.8 11.4l5.9 9.9 44.7-.1c24.6-.1 44.9-.3 45.2-.6.3-.2-2.7-5.4-6.6-11.5-3.9-6.2-7.1-11.6-7.1-12 0-.5-.3-1.1-.7-1.3-1.1-.4-11.3-16.7-11.3-17.9 0-.5-.3-.9-.7-.9-.5 0-1.3-1-1.9-2.3-.6-1.2-4.8-8.1-9.4-15.2-10.3-16.1-11.8-18.6-12.7-20.5-.3-.8-.9-1.7-1.3-2-.3-.3-11.5-18.1-24.9-39.5-13.3-21.5-32.3-51.8-42.2-67.5-9.8-15.7-17.8-28.9-17.9-29.3 0-.4 6.4-9.2 14.2-19.5 7.8-10.3 25.7-33.8 39.8-52.3 14-18.5 26.5-34.9 27.7-36.5 1.2-1.6 9.2-12.1 17.8-23.4 8.5-11.3 16.1-21.2 16.8-22 .6-.8 3.7-4.9 6.7-9s5.7-7.7 6-8c.3-.3 1.3-1.5 2.3-2.6l1.8-2.2h-47l-46.9.1-8.4 11.6c-4.5 6.4-8.6 12-9.1 12.6C236 29.8 196.8 84 194 88c-.8 1.2-2.2 3-3 4-.8 1.1-4 5.4-7 9.7-3 4.3-5.7 8-6 8.3-.5.5-8.2 11.1-15.4 21.4-1.6 2.2-3.2 4.2-3.7 4.4-.5.2-.9.8-.9 1.3 0 .6-.5 1.5-1 2.2-2.8 3.3-5.6 7-19 25.2l-14.5 19.7-.3-90.5-.2-90.5H84.7l-38.2.1v197.8z"/></svg>